<?xml version="1.0" encoding="UTF-8"?>
<svg width="49.172" height="49.172" version="1.1" xmlns="http://www.w3.org/2000/svg">
    <g transform="matrix(1.25 0 0 -1.25 -168.46 856.03)">
        <path id="path2851" d="m154.43 649.48c8.6534 0 15.669 7.015 15.669 15.669s-7.0156 15.669-15.669 15.669c-8.6534 0-15.669-7.015-15.669-15.669s7.0153-15.669 15.669-15.669" fill="#fff" />
        <path id="path2853" d="m160.44 656.04c-0.83309-0.11908-1.1016-0.76755-0.5967-1.4405l2.3067-3.0758c2.3039 1.3071 4.2447 3.1788 5.6312 5.4302l-7.3412-0.91392" fill="#fddd04" />
        <path id="path2855" d="m148.46 659.31c0.83309 0.11909 1.1016 0.7673 0.5967 1.4405l-6.0343 8.0458c-0.50516 0.6732-0.3672 0.81115 0.306 0.30625l8.0445-6.0336c0.6732-0.50516 1.3214-0.23639 1.4405 0.59644l1.4224 14.668c0.11884 0.83309 0.31365 0.83309 0.43274 0l1.4224-14.67c0.11909-0.83308 0.76704-1.1013 1.4405-0.59644l8.0475 6.0356c0.6732 0.5049 0.8109 0.36695 0.306-0.30625l-6.0348-8.046c-0.5049-0.67345-0.23639-1.3214 0.5967-1.4405l8.0873-1.007c1.0067 2.0691 1.5728 4.3919 1.5728 6.8473 0 8.6529-7.0148 15.668-15.668 15.668s-15.668-7.0148-15.668-15.668c0-2.4569 0.56636-4.7807 1.5741-6.8501l8.1146 1.01" fill="#fddd04" />
        <path id="path2857" d="m152.81 651.68c-0.11908 0.83309-0.76729 1.1016-1.4405 0.5967l-2.4082-1.8064c1.3104-0.48883 2.7043-0.80452 4.154-0.9259l-0.30524 2.1356" fill="#fddd04" />
        <path id="path2859" d="m156.09 651.68-0.30524-2.1354c1.4474 0.12317 2.8387 0.4409 4.1468 0.93101l-2.4011 1.8011c-0.67345 0.5049-1.3214 0.23639-1.4405-0.5967" fill="#fddd04" />
        <path id="path2861" d="m148.46 656.04-7.3723 0.918c1.3908-2.2598 3.3397-4.1371 5.6539-5.4455l2.3151 3.0873c0.5049 0.67295 0.23639 1.3212-0.5967 1.4402" fill="#fddd04" />
    </g>
</svg>